<svg xmlns="http://www.w3.org/2000/svg" width="118pt" height="144" viewBox="0 0 118 108"><path d="M113.67322 100.771464c-.0351.93359-1.51953 1.80078-4.45312 2.60156-2.89844.80078-6.9336 1.5-12.09766 2.09766-5.13281.60156-11.11719 1.0664-17.94922 1.40234-6.80078.33203-14.11719.51563-21.95312.55078-7.86328 0-15.19922-.18359-22-.55078-6.79688-.33594-12.78125-.80078-17.94922-1.40234-5.16406-.59766-9.19922-1.29688-12.09766-2.09766-2.90234-.80078-4.38672-1.66797-4.45312-2.60156.0664-.9336 1.55078-1.80078 4.45312-2.59766 2.89844-.80078 6.9336-1.5 12.09766-2.10156 5.16797-.60156 11.15234-1.06641 17.94922-1.39844 6.80078-.36719 14.13672-.55078 22-.55078 7.83593 0 15.16797.18359 22 .55078 6.80078.33203 12.76953.79688 17.90234 1.39844 5.16406.60156 9.21484 1.30078 12.14844 2.10156 2.90234.79688 4.36719 1.66406 4.40234 2.59766" fill="#e6e6e6" fill-rule="evenodd"/><path d="M93.57166 101.771464l23.80078-68.398439-52.60156-18.351562.15234 21.949221 26.09766 9.10156-17 48.89844 19.55078 6.80078M2.17322 70.373024L25.9701 1.970682l19.55078 6.800781-17 48.851561 26.25 9.19922v21.89844L2.17322 70.373024" fill="#f9f9f9"/><path d="M45.57166 8.771463L26.02088 1.970682 5.57166 60.720684c8.93359 1.26953 18.19922 1.91797 27.80078 1.95312 3-.0352 5.98438-.11718 8.94922-.25l-13.75-4.80078 17-48.851561m19.25 6.25l52.60156 18.351562-3.90234 11.097659c-7.69922 4.10156-16.19922 7.5664-25.5 10.40234l3.05078-8.80078-26.10156-9.10156-.14844-21.949221" fill="#fff"/><path d="M61.82166 60.572244l-23.5-8.85156L56.17322.521463l.79688 41.402341 23.35156 8.39844-16.94922 52.39844-1.55078-42.14844" fill="#f5941c" fill-rule="evenodd"/><path d="M80.32166 50.322244l-23.35156-8.39844L56.17322.521463 38.32166 51.720684l23.5 8.85156v.0508c5.56641-.80078 10.96484-1.83594 16.19922-3.10156l2.30078-7.19924" fill="#faae17" fill-rule="evenodd"/></svg>
