<?xml version="1.0" encoding="UTF-8" standalone="no"?>
<svg
   xmlns:dc="http://purl.org/dc/elements/1.1/"
   xmlns:cc="http://creativecommons.org/ns#"
   xmlns:rdf="http://www.w3.org/1999/02/22-rdf-syntax-ns#"
   xmlns:svg="http://www.w3.org/2000/svg"
   xmlns="http://www.w3.org/2000/svg"
   xmlns:sodipodi="http://sodipodi.sourceforge.net/DTD/sodipodi-0.dtd"
   xmlns:inkscape="http://www.inkscape.org/namespaces/inkscape"
   width="118pt"
   height="108pt"
   viewBox="0 0 118 108"
   version="1.1"
   id="svg26"
   sodipodi:docname="whiteLogo.svg"
   inkscape:version="0.92.0 r15299">
  <metadata
     id="metadata32">
    <rdf:RDF>
      <cc:Work
         rdf:about="">
        <dc:format>image/svg+xml</dc:format>
        <dc:type
           rdf:resource="http://purl.org/dc/dcmitype/StillImage" />
        <dc:title></dc:title>
      </cc:Work>
    </rdf:RDF>
  </metadata>
  <defs
     id="defs30" />
  <sodipodi:namedview
     pagecolor="#ffffff"
     bordercolor="#666666"
     borderopacity="1"
     objecttolerance="10"
     gridtolerance="10"
     guidetolerance="10"
     inkscape:pageopacity="0"
     inkscape:pageshadow="2"
     inkscape:window-width="1920"
     inkscape:window-height="1017"
     id="namedview28"
     showgrid="false"
     inkscape:pagecheckerboard="true"
     inkscape:zoom="3.1015166"
     inkscape:cx="100.90954"
     inkscape:cy="80.245854"
     inkscape:window-x="1072"
     inkscape:window-y="317"
     inkscape:window-maximized="1"
     inkscape:current-layer="svg26" />
  <g
     id="surface2"
     transform="translate(-180.92834,-64.427756)">
    <path
       style="fill:#e6e6e6;fill-opacity:1;fill-rule:evenodd;stroke:none"
       d="m 294.60156,165.19922 c -0.0351,0.93359 -1.51953,1.80078 -4.45312,2.60156 -2.89844,0.80078 -6.9336,1.5 -12.09766,2.09766 -5.13281,0.60156 -11.11719,1.0664 -17.94922,1.40234 -6.80078,0.33203 -14.11719,0.51563 -21.95312,0.55078 -7.86328,0 -15.19922,-0.18359 -22,-0.55078 -6.79688,-0.33594 -12.78125,-0.80078 -17.94922,-1.40234 -5.16406,-0.59766 -9.19922,-1.29688 -12.09766,-2.09766 -2.90234,-0.80078 -4.38672,-1.66797 -4.45312,-2.60156 0.0664,-0.9336 1.55078,-1.80078 4.45312,-2.59766 2.89844,-0.80078 6.9336,-1.5 12.09766,-2.10156 5.16797,-0.60156 11.15234,-1.06641 17.94922,-1.39844 6.80078,-0.36719 14.13672,-0.55078 22,-0.55078 7.83593,0 15.16797,0.18359 22,0.55078 6.80078,0.33203 12.76953,0.79688 17.90234,1.39844 5.16406,0.60156 9.21484,1.30078 12.14844,2.10156 2.90234,0.79688 4.36719,1.66406 4.40234,2.59766"
       id="path10"
       inkscape:connector-curvature="0" />
    <path
       style="fill:#f9f9f9;fill-opacity:1;opacity:1"
       d="m 274.5,166.19922 23.80078,-68.398439 -52.60156,-18.351562 0.15234,21.949221 26.09766,9.10156 -17,48.89844 19.55078,6.80078 m -91.39844,-31.39844 23.79688,-68.402342 19.55078,6.800781 -17,48.851561 26.25,9.19922 v 21.89844 l -52.59766,-18.34766"
       id="path12"
       inkscape:connector-curvature="0" />
    <path
       style="fill:#ffffff;fill-opacity:1;opacity:1"
       d="M 226.5,73.199219 206.94922,66.398438 186.5,125.14844 c 8.93359,1.26953 18.19922,1.91797 27.80078,1.95312 3,-0.0352 5.98438,-0.11718 8.94922,-0.25 l -13.75,-4.80078 17,-48.851561 m 19.25,6.25 52.60156,18.351562 -3.90234,11.097659 C 286.75,113 278.25,116.46484 268.94922,119.30078 L 272,110.5 245.89844,101.39844 245.75,79.449219"
       id="path14"
       inkscape:connector-curvature="0" />
    <path
       style="fill:#f5941c;fill-opacity:1;fill-rule:evenodd;stroke:none"
       d="m 242.75,125 -23.5,-8.85156 17.85156,-51.199221 0.79688,41.402341 L 261.25,114.75 244.30078,167.14844 242.75,125"
       id="path16"
       inkscape:connector-curvature="0" />
    <path
       style="fill:#faae17;fill-opacity:1;fill-rule:evenodd;stroke:none"
       d="M 261.25,114.75 237.89844,106.35156 237.10156,64.949219 219.25,116.14844 242.75,125 v 0.0508 c 5.56641,-0.80078 10.96484,-1.83594 16.19922,-3.10156 L 261.25,114.75"
       id="path18"
       inkscape:connector-curvature="0" />
  </g>
</svg>
