<svg xmlns="http://www.w3.org/2000/svg" width="480pt" height="290pt" viewBox="0 0 480 290" version="1.1" xmlns:xlink="http://www.w3.org/1999/xlink">
  <g id="surface2" transform="matrix(1,0,0,1,0,0)">
    <path style="stroke:none;fill-rule:evenodd;fill:rgb(90.196078%,90.588235%,90.980392%);fill-opacity:1" d="M 294.601562 165.199219 C 294.566406 166.132812 293.082031 167 290.148438 167.800781 C 287.25 168.601562 283.214844 169.300781 278.050781 169.898438 C 272.917969 170.5 266.933594 170.964844 260.101562 171.300781 C 253.300781 171.632812 245.984375 171.816406 238.148438 171.851562 C 230.285156 171.851562 222.949219 171.667969 216.148438 171.300781 C 209.351562 170.964844 203.367188 170.5 198.199219 169.898438 C 193.035156 169.300781 189 168.601562 186.101562 167.800781 C 183.199219 167 181.714844 166.132812 181.648438 165.199219 C 181.714844 164.265625 183.199219 163.398438 186.101562 162.601562 C 189 161.800781 193.035156 161.101562 198.199219 160.5 C 203.367188 159.898438 209.351562 159.433594 216.148438 159.101562 C 222.949219 158.734375 230.285156 158.550781 238.148438 158.550781 C 245.984375 158.550781 253.316406 158.734375 260.148438 159.101562 C 266.949219 159.433594 272.917969 159.898438 278.050781 160.5 C 283.214844 161.101562 287.265625 161.800781 290.199219 162.601562 C 293.101562 163.398438 294.566406 164.265625 294.601562 165.199219 "/>
    <path style="stroke:none;fill-rule:evenodd;fill:rgb(18.823529%,20.392157%,23.921569%);fill-opacity:1" d="M 274.5 166.199219 L 298.300781 97.800781 L 245.699219 79.449219 L 245.851562 101.398438 L 271.949219 110.5 L 254.949219 159.398438 L 274.5 166.199219 M 183.101562 134.800781 L 206.898438 66.398438 L 226.449219 73.199219 L 209.449219 122.050781 L 235.699219 131.25 L 235.699219 153.148438 L 183.101562 134.800781 "/>
    <path style="stroke:none;fill-rule:evenodd;fill:rgb(30.196078%,31.764706%,34.509804%);fill-opacity:1" d="M 226.5 73.199219 L 206.949219 66.398438 L 186.5 125.148438 C 195.433594 126.417969 204.699219 127.066406 214.300781 127.101562 C 217.300781 127.066406 220.285156 126.984375 223.25 126.851562 L 209.5 122.050781 L 226.5 73.199219 M 245.75 79.449219 L 298.351562 97.800781 L 294.449219 108.898438 C 286.75 113 278.25 116.464844 268.949219 119.300781 L 272 110.5 L 245.898438 101.398438 L 245.75 79.449219 "/>
    <path style="stroke:none;fill-rule:evenodd;fill:rgb(96.862745%,58.039216%,11.764706%);fill-opacity:1" d="M 242.75 125 L 219.25 116.148438 L 237.101562 64.949219 L 237.898438 106.351562 L 261.25 114.75 L 244.300781 167.148438 L 242.75 125 "/>
    <path style="stroke:none;fill-rule:evenodd;fill:rgb(98.823529%,68.627451%,9.019608%);fill-opacity:1" d="M 261.25 114.75 L 237.898438 106.351562 L 237.101562 64.949219 L 219.25 116.148438 L 242.75 125 L 242.75 125.050781 C 248.316406 124.25 253.714844 123.214844 258.949219 121.949219 L 261.25 114.75 "/>
  </g>
  <g id="surface4">
    <text style="fill:rgb(247,148,30)" font-family="Kabel Bk BT" font-size="50" transform="matrix(1.0108242635892917,0,0,1.0108242635892917,198.27666994091723,205.00978232614335)" xml:space="preserve"><![CDATA[R  G]]></text>
    <text style="fill:rgb(247,148,30)" font-family="Kabel Bk BT" font-size="70" transform="matrix(1.1465994833730626,0,0,1.1465994833730626,224.53400516626957,206.83778295131125)" xml:space="preserve"><![CDATA[t]]></text>
  </g>
</svg>